<svg id="图层_1" data-name="图层 1" xmlns="http://www.w3.org/2000/svg" viewBox="0 0 16 16"><defs><style>.cls-1{fill:none;}.cls-2{fill:#cf0aff;}</style></defs><title>3</title><rect class="cls-1" width="16" height="16"/><polygon class="cls-2" points="11.62 0 4.38 0 3.4 1 4.38 2 11.62 2 12.6 1 11.62 0"/><polygon class="cls-2" points="11.38 7 4.62 7 3.7 8 4.62 9 11.38 9 12.3 8 11.38 7"/><polygon class="cls-2" points="11.62 14 4.38 14 3.4 15 4.38 16 11.62 16 12.6 15 11.62 14"/><polygon class="cls-2" points="10.6 1.04 10.6 7.56 11.6 8.6 12.6 7.56 12.6 1.04 11.6 0 10.6 1.04"/><polygon class="cls-2" points="10.6 8.44 10.6 14.96 11.6 16 12.6 14.96 12.6 8.44 11.6 7.4 10.6 8.44"/></svg>