<svg id="图层_1" data-name="图层 1" xmlns="http://www.w3.org/2000/svg" viewBox="0 0 16 16"><defs><style>.cls-1{fill:#cf0aff;}.cls-2{fill:none;}</style></defs><title>坐标icon</title><circle class="cls-1" cx="8" cy="8" r="3.03"/><path class="cls-1" d="M9,3.06A5.05,5.05,0,0,1,12.94,7H16A8.07,8.07,0,0,0,9,0Z"/><path class="cls-1" d="M3.06,7A5.05,5.05,0,0,1,7,3.06V0A8.07,8.07,0,0,0,0,7Z"/><path class="cls-1" d="M12.94,9A5.05,5.05,0,0,1,9,12.94V16a8.07,8.07,0,0,0,7-7Z"/><path class="cls-1" d="M7,12.94A5.05,5.05,0,0,1,3.06,9H0a8.07,8.07,0,0,0,7,7Z"/><rect class="cls-2" width="16" height="16"/></svg>